<svg version="1.2" xmlns="http://www.w3.org/2000/svg" viewBox="0 0 900 470" width="900" height="470">
	<g fill="#ffffff">
		<path fill-rule="evenodd" d="m854.4 25.3h-27.9v63.9 27.9 153.9h27.9v-153.9h40.5v-27.9h-40.5z"/>
		<path fill-rule="evenodd" d="m764.4 89.2v181.8h-27v-181.8zm0-36.9h-27v-27h27z"/>
		<path fill-rule="evenodd" d="m548.4 109.9l12.6-9c15.3-10.8 34.2-17.1 54-17.1 51.3 0 93.6 41.4 93.6 93.6 0 51.3-41.4 93.6-93.6 93.6-26.1 0-49.5-10.8-66.6-27.9v25.2h-27v-245.7h27zm66.6 134.1c36.9 0 66.6-29.7 66.6-66.6 0-36.9-29.7-66.6-66.6-66.6-36.9 0-66.6 29.7-66.6 66.6 0 36 29.7 66.6 66.6 66.6z"/>
	</g>
	<path fill-rule="evenodd" d="M 80.011 410.174 L 100.438 410.174 C 99.667 421.401 95.748 430.299 88.683 436.871 C 81.616 443.305 72.302 446.523 60.74 446.523 C 48.021 446.523 38.063 442.005 30.869 432.969 C 23.673 423.933 20.077 411.474 20.077 395.594 L 20.077 389.228 C 20.077 379.098 21.746 370.198 25.088 362.532 C 28.428 354.728 33.182 348.773 39.349 344.666 C 45.515 340.559 52.709 338.505 60.932 338.505 C 72.366 338.505 81.552 341.791 88.49 348.362 C 95.428 354.796 99.475 363.901 100.631 375.675 L 80.203 375.675 C 79.689 368.83 77.891 363.901 74.807 360.889 C 71.851 357.876 67.226 356.371 60.932 356.371 C 54.122 356.371 49.048 358.973 45.708 364.175 C 42.366 369.241 40.632 377.25 40.505 388.201 L 40.505 396.21 C 40.505 407.573 42.174 415.857 45.515 421.058 C 48.726 426.26 53.802 428.862 60.74 428.862 C 67.033 428.862 71.724 427.357 74.807 424.344 C 77.891 421.331 79.625 416.608 80.011 410.174 Z M 194.867 390.255 L 194.867 394.978 C 194.867 405.383 193.132 414.419 189.664 422.085 C 186.195 429.889 181.248 435.912 174.825 440.156 C 168.529 444.401 161.206 446.523 152.856 446.523 C 144.762 446.523 137.502 444.469 131.079 440.362 C 124.654 436.117 119.644 430.094 116.048 422.29 C 112.579 414.625 110.845 405.724 110.845 395.594 L 110.845 390.255 C 110.845 379.987 112.579 370.884 116.048 362.942 C 119.517 355.139 124.462 349.116 130.887 344.871 C 137.31 340.626 144.633 338.505 152.856 338.505 C 161.077 338.505 168.336 340.626 174.632 344.871 C 181.055 349.116 186.002 355.139 189.471 362.942 C 193.067 370.884 194.867 379.987 194.867 390.255 Z M 174.247 395.389 L 174.247 390.255 C 174.247 379.166 172.383 370.746 168.658 364.996 C 164.931 359.384 159.664 356.576 152.856 356.576 C 145.918 356.576 140.649 359.384 137.053 364.996 C 133.326 370.608 131.399 378.892 131.272 389.844 L 131.272 394.978 C 131.272 405.657 133.134 414.008 136.861 420.032 C 140.586 425.919 145.918 428.862 152.856 428.862 C 159.664 428.862 164.931 425.987 168.658 420.237 C 172.254 414.487 174.118 406.205 174.247 395.389 Z M 289.681 339.943 L 289.681 445.085 L 269.446 445.085 L 229.94 375.88 L 229.94 445.085 L 209.513 445.085 L 209.513 339.943 L 229.94 339.943 L 269.446 409.353 L 269.446 339.943 L 289.681 339.943 Z M 366.766 384.71 L 366.766 402.166 L 327.838 402.166 L 327.838 445.085 L 307.411 445.085 L 307.411 339.943 L 371.776 339.943 L 371.776 357.603 L 327.838 357.603 L 327.838 384.71 L 366.766 384.71 Z M 442.694 382.657 L 442.694 399.496 L 403.766 399.496 L 403.766 427.835 L 449.632 427.835 L 449.632 445.085 L 383.339 445.085 L 383.339 339.943 L 449.439 339.943 L 449.439 357.603 L 403.766 357.603 L 403.766 382.657 L 442.694 382.657 Z M 516.31 445.085 L 497.81 406.683 L 481.622 406.683 L 481.622 445.085 L 461.387 445.085 L 461.387 339.943 L 498.002 339.943 C 509.692 339.943 518.686 342.75 524.982 348.362 C 531.276 353.839 534.425 361.643 534.425 371.773 C 534.425 378.892 533.01 384.848 530.185 389.639 C 527.229 394.43 522.797 398.264 516.888 401.139 L 538.279 444.058 L 538.279 445.085 L 516.31 445.085 Z M 481.622 357.603 L 481.622 389.023 L 498.002 389.023 C 503.013 389.023 506.931 387.653 509.758 384.916 C 512.583 382.178 513.997 378.412 513.997 373.621 C 513.997 368.555 512.649 364.653 509.951 361.916 C 507.38 359.041 503.333 357.603 497.81 357.603 L 481.622 357.603 Z M 609.197 382.657 L 609.197 399.496 L 570.269 399.496 L 570.269 427.835 L 615.942 427.835 L 615.942 445.085 L 549.842 445.085 L 549.842 339.943 L 615.942 339.943 L 615.942 357.603 L 570.269 357.603 L 570.269 382.657 L 609.197 382.657 Z M 708.058 339.943 L 708.058 445.085 L 687.823 445.085 L 648.125 375.88 L 648.125 445.085 L 627.89 445.085 L 627.89 339.943 L 648.125 339.943 L 687.823 409.353 L 687.823 339.943 L 708.058 339.943 Z M 782.83 410.174 L 803.258 410.174 C 802.487 421.401 798.567 430.299 791.502 436.871 C 784.436 443.305 775.122 446.523 763.559 446.523 C 750.84 446.523 740.883 442.005 733.689 432.969 C 726.493 423.933 722.897 411.474 722.897 395.594 L 722.897 389.228 C 722.897 379.098 724.566 370.198 727.907 362.532 C 731.247 354.728 736.001 348.773 742.168 344.666 C 748.335 340.559 755.529 338.505 763.752 338.505 C 775.185 338.505 784.372 341.791 791.31 348.362 C 798.247 354.796 802.294 363.901 803.45 375.675 L 783.023 375.675 C 782.509 368.83 780.774 363.901 777.82 360.889 C 774.736 357.876 770.046 356.371 763.752 356.371 C 757.071 356.371 751.996 358.973 748.528 364.175 C 745.186 369.241 743.452 377.25 743.324 388.201 L 743.324 396.21 C 743.324 407.573 744.993 415.857 748.335 421.058 C 751.546 426.26 756.622 428.862 763.559 428.862 C 769.853 428.862 774.544 427.357 777.627 424.344 C 780.711 421.331 782.445 416.608 782.83 410.174 Z M 875.91 382.657 L 875.91 399.496 L 836.982 399.496 L 836.982 427.835 L 882.655 427.835 L 882.655 445.085 L 816.555 445.085 L 816.555 339.943 L 882.655 339.943 L 882.655 357.603 L 836.982 357.603 L 836.982 382.657 L 875.91 382.657 Z" fill="#00ecd8" style=""/>
	<path fill-rule="evenodd" d="m98.4 145.9c0-45 32.4-76.5 77.4-76.5 45 0 77.4 32.4 77.4 76.5 0 44.1-32.4 76.5-77.4 76.5-45 0-77.4-31.5-77.4-76.5zm122.4 0c0-27.9-18-48.6-45-48.6-27 0-45 20.7-45 48.6 0 27.9 18 48.6 45 48.6 27 0 45-20.7 45-48.6z" fill="#00ecd8"/>
	<path d="m305.4 220.6v-108l-24.3 25.2-18-18.9 46.8-46.8h27.9v148.5z" fill="#00ecd8"/>
	<path fill-rule="evenodd" d="m435 294.4h-414v-288.9h414zm-387-27h360v-235h-360z" fill="#00ecd8"/>
</svg>
